<?xml version="1.0" standalone="no"?><!DOCTYPE svg PUBLIC "-//W3C//DTD SVG 1.1//EN" "http://www.w3.org/Graphics/SVG/1.1/DTD/svg11.dtd"><svg xmlns="http://www.w3.org/2000/svg" version="1.1" width="1997.167" height="2907.167" xmlns:xlink="http://www.w3.org/1999/xlink" xlink="http://www.w3.org/1999/xlink" style="position:relative;overflow:hidden;" viewBox="99.5 68.167 1997.167 2907.167"><defs><filter id="586cfabb-9f26-484b-80c9-f4c95374a986" x="-0.5" y="-0.5" width="2" height="2"><feFlood flood-color="#D694B2" result="flood"/><feComposite in="flood" in2="SourceAlpha" operator="in" result="mask"/><feGaussianBlur in="mask" stdDeviation="10" result="oEffect0"/><feMerge><feMergeNode in="oEffect0"/><feMergeNode in="SourceGraphic"/></feMerge></filter><filter id="4694f83d-be9f-44f0-8306-b6722effc67d" x="-0.25" y="-0.5" width="1.5" height="2"><feFlood flood-color="#D694B2" result="flood"/><feComposite in="flood" in2="SourceAlpha" operator="in" result="mask"/><feGaussianBlur in="mask" stdDeviation="10" result="oEffect0"/><feMerge><feMergeNode in="oEffect0"/><feMergeNode in="SourceGraphic"/></feMerge></filter><filter id="15dbe5d8-e5f2-47d4-8ca6-ab4f208e7d56" x="-0.25" y="-0.25" width="1.5" height="1.5"><feFlood flood-color="#D694B2" result="flood"/><feComposite in="flood" in2="SourceAlpha" operator="in" result="mask"/><feGaussianBlur in="mask" stdDeviation="10" result="oEffect0"/><feMerge><feMergeNode in="oEffect0"/><feMergeNode in="SourceGraphic"/></feMerge></filter><filter id="89fcedd5-2f69-4945-8202-94d26dba94c8" x="-0.1" y="-0.25" width="1.2" height="1.5"><feFlood flood-color="#D694B2" result="flood"/><feComposite in="flood" in2="SourceAlpha" operator="in" result="mask"/><feGaussianBlur in="mask" stdDeviation="10" result="oEffect0"/><feMerge><feMergeNode in="oEffect0"/><feMergeNode in="SourceGraphic"/></feMerge></filter><filter id="14fe4887-d02c-4926-8092-757693e91f6e" x="-0.5" y="-0.5" width="2" height="2"><feFlood flood-color="#D694B2" result="flood"/><feComposite in="flood" in2="SourceAlpha" operator="in" result="mask"/><feGaussianBlur in="mask" stdDeviation="8.566666666666666" result="oEffect0"/><feMerge><feMergeNode in="oEffect0"/><feMergeNode in="SourceGraphic"/></feMerge></filter><filter id="640a5232-2426-4f4f-8db2-afdfdd05e52c" x="-0.5" y="-0.5" width="2" height="2"><feFlood flood-color="#D694B2" result="flood"/><feComposite in="flood" in2="SourceAlpha" operator="in" result="mask"/><feGaussianBlur in="mask" stdDeviation="7.866666666666666" result="oEffect0"/><feMerge><feMergeNode in="oEffect0"/><feMergeNode in="SourceGraphic"/></feMerge></filter></defs><g><g width="1920.333" height="75" transform="scale(1,1) translate(133.833,80.667)"><g stroke="#A5A5A5" stroke-opacity="1" stroke-width="1" stroke-dasharray="none" width="1920.333" height="75" transform="scale(1,1) translate(0,0)" fill="#CEE7E9" fill-opacity="1"><rect width="1920.333" height="75"/></g></g><g width="150" height="75" transform="scale(1,1) translate(121.833,80.667)"><g stroke="#A5A5A5" stroke-opacity="1" stroke-width="1" stroke-dasharray="none" width="150" height="75" transform="scale(1,1) translate(0,0)" fill="#C0504D" fill-opacity="1"><rect width="150" height="75"/></g><g width="149" height="74" transform="scale(1,1) translate(0.5,0.5)"><text width="149" height="34.375" transform="scale(1,1) translate(0,19.8125)" xml:space="preserve"><tspan xml:space="preserve" text-rendering="optimizeSpeed" font-size="30.555555555555557" font-weight="normal" font-style="normal" text-decoration="none" fill="#333333" opacity="1" x="17.629" text-anchor="start" y="28.125" textLength="113.74260711669922" style="font-family: Verdana, Geneva, sans-serif;">[] LOGO</tspan></text></g></g><g width="150" height="75" transform="scale(1,1) translate(279.333,80.667)"><g stroke="#A5A5A5" stroke-opacity="1" stroke-width="1" stroke-dasharray="none" width="150" height="75" transform="scale(1,1) translate(0,0)" fill="#C0504D" fill-opacity="1"><rect width="150" height="75"/></g><g width="149" height="74" transform="scale(1,1) translate(0.5,0.5)"><text width="149" height="34.375" transform="scale(1,1) translate(0,19.8125)" xml:space="preserve"><tspan xml:space="preserve" text-rendering="optimizeSpeed" font-size="30.555555555555557" font-weight="normal" font-style="normal" text-decoration="none" fill="#333333" opacity="1" x="33.754" text-anchor="start" y="28.125" textLength="81.49188995361328" style="font-family: Verdana, Geneva, sans-serif;">Home</tspan></text></g></g><g width="150" height="75" transform="scale(1,1) translate(436.833,80.667)"><g stroke="#A5A5A5" stroke-opacity="1" stroke-width="1" stroke-dasharray="none" width="150" height="75" transform="scale(1,1) translate(0,0)" fill="#C0504D" fill-opacity="1"><rect width="150" height="75"/></g><g width="149" height="74" transform="scale(1,1) translate(0.5,0.5)"><text width="149" height="34.375" transform="scale(1,1) translate(0,19.8125)" xml:space="preserve"><tspan xml:space="preserve" text-rendering="optimizeSpeed" font-size="30.555555555555557" font-weight="normal" font-style="normal" text-decoration="none" fill="#333333" opacity="1" x="15.913" text-anchor="start" y="28.125" textLength="117.17350006103516" style="font-family: Verdana, Geneva, sans-serif;">AboutUs</tspan></text></g></g><g width="150" height="75" transform="scale(1,1) translate(1899.667,80.667)"><g stroke="#A5A5A5" stroke-opacity="1" stroke-width="1" stroke-dasharray="none" width="150" height="75" transform="scale(1,1) translate(0,0)" fill="#C0504D" fill-opacity="1"><rect width="150" height="75"/></g><g width="149" height="74" transform="scale(1,1) translate(0.5,0.5)"><text width="149" height="24.999998092651367" transform="scale(1,1) translate(0,24.500000953674316)" xml:space="preserve"><tspan xml:space="preserve" text-rendering="optimizeSpeed" font-size="22.22222222222222" font-weight="normal" font-style="normal" text-decoration="none" fill="#333333" opacity="1" x="9.645" text-anchor="start" y="19.792" textLength="129.71017456054688" style="font-family: Verdana, Geneva, sans-serif;">Login/Signup</tspan></text></g></g><g width="1931.667" height="885.167" transform="scale(1,1) translate(122,160.333)"><g stroke="#A5A5A5" stroke-opacity="1" stroke-width="1" stroke-dasharray="none" width="1931.667" height="885.167" transform="scale(1,1) translate(0,0)" fill="#D8D8D8" fill-opacity="1" filter="url(#89fcedd5-2f69-4945-8202-94d26dba94c8)"><rect width="1931.667" height="885.167"/></g><g width="1930.6666666666665" height="884.1666666666666" transform="scale(1,1) translate(0.5,0.5)"><text width="1930.6666666666665" height="165.62499618530273" transform="scale(1,1) translate(0,359.27083524068195)" xml:space="preserve"><tspan xml:space="preserve" text-rendering="optimizeSpeed" font-size="50" font-weight="bold" font-style="normal" text-decoration="none" fill="#333333" opacity="1" x="781.959" text-anchor="start" y="44.792" textLength="352.8564453125" style="font-family: Verdana, Geneva, sans-serif;">Home page .....</tspan><tspan xml:space="preserve" text-rendering="optimizeSpeed" font-size="50" font-weight="bold" font-style="normal" text-decoration="none" fill="#333333" opacity="1" x="594.484" text-anchor="start" y="100" textLength="741.69921875" style="font-family: Verdana, Geneva, sans-serif;">information about company .....</tspan></text></g></g><g width="1933.833" height="340" transform="scale(1,1) translate(120.833,1050.5)"><g stroke="#A5A5A5" stroke-opacity="1" stroke-width="1" stroke-dasharray="none" width="1933.833" height="340" transform="scale(1,1) translate(0,0)" fill="#4BACC6" fill-opacity="1"><rect width="1933.833" height="340"/></g><g width="1932.8333333333333" height="339" transform="scale(1,1) translate(0.5,0.5)"><text width="1932.8333333333333" height="55.20833206176758" transform="scale(1,1) translate(0,141.8958339691162)" xml:space="preserve"><tspan xml:space="preserve" text-rendering="optimizeSpeed" font-size="50" font-weight="bold" font-style="normal" text-decoration="none" fill="#333333" opacity="1" x="881.7" text-anchor="start" y="44.792" textLength="155.54197692871094" style="font-family: Verdana, Geneva, sans-serif;">Footer</tspan></text></g></g><g width="4" height="0" transform="scale(1,1) translate(1087.833,1390.5)"><g transform="scale(1,1) translate(0,0)" fill="#545454" stroke="#545454" stroke-opacity="1"><path d="M0,0 L4,0" fill="none" stroke-width="1" stroke-dasharray="none"/><g><g stroke-dasharray="none"><path d="M-1,-1L1,-1L1,1L-1,1z" stroke-width="0" fill="none"/></g></g></g></g><g width="0" height="340" transform="scale(1,1) translate(604.333,1050.5)"><g transform="scale(1,1) translate(0,0)" fill="#545454" stroke="#545454" stroke-opacity="1"><path d="M0,0 L0,340" fill="none" stroke-width="1" stroke-dasharray="none"/><g><g stroke-dasharray="none"><path d="M-1,-1L1,-1L1,1L-1,1z" stroke-width="0" fill="none"/></g></g></g></g><g width="0.042" height="339.841" transform="scale(1,1) translate(604.292,1050.5)"><g transform="scale(1,1) translate(0,0)" fill="#545454" stroke="#545454" stroke-opacity="1"><path d="M0,0 L0.042,339.841" fill="none" stroke-width="1" stroke-dasharray="none"/><g><g stroke-dasharray="none"><path d="M-1,-1L1,-1L1,1L-1,1z" stroke-width="0" fill="none"/></g></g></g></g><g width="191.667" height="191.667" transform="scale(1,1) translate(1818.667,815.833)"><g width="191.667" height="191.667" transform="scale(1,1) translate(0,0)" stroke="#A5A5A5" stroke-width="1" stroke-dasharray="none" fill="#FBD585" fill-opacity="1" stroke-opacity="1" filter="url(#586cfabb-9f26-484b-80c9-f4c95374a986)"><ellipse rx="95.8335" ry="95.8335" cx="95.8335" cy="95.8335"/></g><g width="130.82169310133332" height="130.82169310133332" transform="scale(1,1) translate(30.422,30.422)"><text width="130.82169310133332" height="110.41666412353516" transform="scale(1,1) translate(0,10.202514488899084)" xml:space="preserve"><tspan xml:space="preserve" text-rendering="optimizeSpeed" font-size="50" font-weight="bold" font-style="normal" text-decoration="none" fill="#333333" opacity="1" x="8.489" text-anchor="start" y="44.792" textLength="113.8427734375" style="font-family: Verdana, Geneva, sans-serif;">Cont</tspan><tspan xml:space="preserve" text-rendering="optimizeSpeed" font-size="50" font-weight="bold" font-style="normal" text-decoration="none" fill="#333333" opacity="1" x="0.103" text-anchor="start" y="100" textLength="130.615234375" style="font-family: Verdana, Geneva, sans-serif;">actus</tspan></text></g></g><g width="483.333" height="219.667" transform="scale(1,1) translate(192.167,762.333)"><g stroke="#A5A5A5" stroke-opacity="1" stroke-width="1" stroke-dasharray="none" width="483.333" height="219.667" transform="scale(1,1) translate(0,0)" fill="#7F7F7F" fill-opacity="1" filter="url(#586cfabb-9f26-484b-80c9-f4c95374a986)"><rect width="483.333" height="219.667"/></g><g width="482.3333333333333" height="218.66666666666666" transform="scale(1,1) translate(0.5,0.5)"><text width="482.3333333333333" height="165.62499618530273" transform="scale(1,1) translate(0,26.52083524068196)" xml:space="preserve"><tspan xml:space="preserve" text-rendering="optimizeSpeed" font-size="50" font-weight="bold" font-style="normal" text-decoration="none" fill="#333333" opacity="1" x="107.829" text-anchor="start" y="44.792" textLength="266.6748046875" style="font-family: Verdana, Geneva, sans-serif;">Language :</tspan><tspan xml:space="preserve" text-rendering="optimizeSpeed" font-size="50" font-weight="bold" font-style="normal" text-decoration="none" fill="#333333" opacity="1" x="104.997" text-anchor="start" y="100" textLength="272.3388671875" style="font-family: Verdana, Geneva, sans-serif;">1. German .</tspan><tspan xml:space="preserve" text-rendering="optimizeSpeed" font-size="50" font-weight="bold" font-style="normal" text-decoration="none" fill="#333333" opacity="1" x="109.196" text-anchor="start" y="155.208" textLength="263.9404296875" style="font-family: Verdana, Geneva, sans-serif;">2. English .</tspan></text></g></g><g width="86.875" height="86.875" transform="scale(1,1) translate(1661.896,862.063)"><g width="86.875" height="86.875" transform="scale(1,1) translate(0,0)" stroke="#A5A5A5" stroke-width="1" stroke-dasharray="none" fill="#7F7F7F" fill-opacity="1" stroke-opacity="1" filter="url(#586cfabb-9f26-484b-80c9-f4c95374a986)"><ellipse rx="43.4375" ry="43.4375" cx="43.4375" cy="43.4375"/></g><g width="56.72279400511722" height="56.72279400511722" transform="scale(1,1) translate(15.076,15.076)"><text width="56.72279400511722" height="55.20833206176758" transform="scale(1,1) translate(0,0.7572309716748222)" xml:space="preserve"><tspan xml:space="preserve" text-rendering="optimizeSpeed" font-size="50" font-weight="bold" font-style="normal" text-decoration="none" fill="#333333" opacity="1" x="21.416" text-anchor="start" y="44.792" textLength="13.891600608825684" style="font-family: Verdana, Geneva, sans-serif;">I</tspan></text></g></g><g width="93.167" height="93.333" transform="scale(1,1) translate(1422.5,765.5)"><g width="93.167" height="93.333" transform="scale(1,1) translate(0,0)" stroke="#A5A5A5" stroke-width="1" stroke-dasharray="none" fill="#7F7F7F" fill-opacity="1" stroke-opacity="1" filter="url(#586cfabb-9f26-484b-80c9-f4c95374a986)"><ellipse rx="46.5835" ry="46.6665" cx="46.5835" cy="46.6665"/></g><g width="61.166666666666664" height="61.33333333333333" transform="scale(1,1) translate(16,16)"><text width="61.166666666666664" height="55.20833206176758" transform="scale(1,1) translate(0,3.0625006357828752)" xml:space="preserve"><tspan xml:space="preserve" text-rendering="optimizeSpeed" font-size="50" font-weight="bold" font-style="normal" text-decoration="none" fill="#333333" opacity="1" x="22.258" text-anchor="start" y="44.792" textLength="16.650390625" style="font-family: Verdana, Geneva, sans-serif;">f</tspan></text></g></g><g width="86.875" height="86.875" transform="scale(1,1) translate(1543.813,820.479)"><g width="86.875" height="86.875" transform="scale(1,1) translate(0,0)" stroke="#A5A5A5" stroke-width="1" stroke-dasharray="none" fill="#7F7F7F" fill-opacity="1" stroke-opacity="1" filter="url(#586cfabb-9f26-484b-80c9-f4c95374a986)"><ellipse rx="43.4375" ry="43.4375" cx="43.4375" cy="43.4375"/></g><g width="56.72279400511722" height="56.72279400511722" transform="scale(1,1) translate(15.076,15.076)"><text width="56.72279400511722" height="55.20833206176758" transform="scale(1,1) translate(0,0.7572309716748222)" xml:space="preserve"><tspan xml:space="preserve" text-rendering="optimizeSpeed" font-size="50" font-weight="bold" font-style="normal" text-decoration="none" fill="#333333" opacity="1" x="20.036" text-anchor="start" y="44.792" textLength="16.650390625" style="font-family: Verdana, Geneva, sans-serif;">t</tspan></text></g></g><g width="1952.167" height="1338.833" transform="scale(1,1) translate(122,1614)"><g stroke="#A5A5A5" stroke-opacity="1" stroke-width="1" stroke-dasharray="none" width="1952.167" height="1338.833" transform="scale(1,1) translate(0,0)" fill="#7F7F7F" fill-opacity="1" filter="url(#89fcedd5-2f69-4945-8202-94d26dba94c8)"><rect width="1952.167" height="1338.833"/></g></g><g width="1450.5" height="1189.5" transform="scale(1,1) translate(586.333,1730.167)"><g stroke="#A5A5A5" stroke-opacity="1" stroke-width="1" stroke-dasharray="none" width="1450.5" height="1189.5" transform="scale(1,1) translate(0,0)" fill="#F79646" fill-opacity="1" filter="url(#15dbe5d8-e5f2-47d4-8ca6-ab4f208e7d56)"><rect width="1450.5" height="1189.5"/></g><g width="1445.5" height="1184.5" transform="scale(1,1) translate(2.5,2.5)"><text width="1445.5" height="28.124998092651367" transform="scale(1,1) translate(0,578.1875009536743)" xml:space="preserve"><tspan xml:space="preserve" text-rendering="optimizeSpeed" font-size="25" font-weight="bold" font-style="normal" text-decoration="none" fill="#333333" opacity="1" x="608.138" text-anchor="start" y="22.917" textLength="229.2236328125" style="font-family: Verdana, Geneva, sans-serif;">Homepage/timeline</tspan></text></g></g><g width="351.667" height="63.5" transform="scale(1,1) translate(176.667,1775)"><g stroke="#A5A5A5" stroke-opacity="1" stroke-width="1" stroke-dasharray="none" width="351.667" height="63.5" transform="scale(1,1) translate(0,0)" fill="#F79646" fill-opacity="1" filter="url(#586cfabb-9f26-484b-80c9-f4c95374a986)"><rect width="351.667" height="63.5"/></g><g width="346.66666666666663" height="58.5" transform="scale(1,1) translate(2.5,2.5)"><text width="346.66666666666663" height="28.124998092651367" transform="scale(1,1) translate(0,15.187500953674316)" xml:space="preserve"><tspan xml:space="preserve" text-rendering="optimizeSpeed" font-size="25" font-weight="bold" font-style="normal" text-decoration="none" fill="#333333" opacity="1" x="108.734" text-anchor="start" y="22.917" textLength="129.19920349121094" style="font-family: Verdana, Geneva, sans-serif;">userprofile</tspan></text></g></g><g width="49.667" height="41.833" transform="rotate(90,503.667,1806.75) scale(1,1) translate(478.833,1785.833)"><g transform="scale(1,1) translate(0,0)" stroke="#A5A5A5" fill="#4BACC6" fill-opacity="1" stroke-opacity="1" filter="url(#14fe4887-d02c-4926-8092-757693e91f6e)"><path d="M24.833,0 L49.667,41.833 L0,41.833 L24.833,0 z" stroke-width="1" stroke-dasharray="none"/></g></g><g width="351.667" height="63.5" transform="scale(1,1) translate(174.333,1944.833)"><g stroke="#A5A5A5" stroke-opacity="1" stroke-width="1" stroke-dasharray="none" width="351.667" height="63.5" transform="scale(1,1) translate(0,0)" fill="#F79646" fill-opacity="1" filter="url(#586cfabb-9f26-484b-80c9-f4c95374a986)"><rect width="351.667" height="63.5"/></g><g width="346.66666666666663" height="58.5" transform="scale(1,1) translate(2.5,2.5)"><text width="346.66666666666663" height="28.124998092651367" transform="scale(1,1) translate(0,15.187500953674316)" xml:space="preserve"><tspan xml:space="preserve" text-rendering="optimizeSpeed" font-size="25" font-weight="bold" font-style="normal" text-decoration="none" fill="#333333" opacity="1" x="105.926" text-anchor="start" y="22.917" textLength="134.814453125" style="font-family: Verdana, Geneva, sans-serif;">my reviews</tspan></text></g></g><g width="49.5" height="38.333" transform="rotate(90,502.917,1976.667) scale(1,1) translate(478.167,1957.5)"><g transform="scale(1,1) translate(0,0)" stroke="#A5A5A5" fill="#4BACC6" fill-opacity="1" stroke-opacity="1" filter="url(#640a5232-2426-4f4f-8db2-afdfdd05e52c)"><path d="M24.75,0 L49.5,38.333 L0,38.333 L24.75,0 z" stroke-width="1" stroke-dasharray="none"/></g></g><g width="351.667" height="63.5" transform="scale(1,1) translate(174.333,1860)"><g stroke="#A5A5A5" stroke-opacity="1" stroke-width="1" stroke-dasharray="none" width="351.667" height="63.5" transform="scale(1,1) translate(0,0)" fill="#F79646" fill-opacity="1" filter="url(#586cfabb-9f26-484b-80c9-f4c95374a986)"><rect width="351.667" height="63.5"/></g><g width="346.66666666666663" height="58.5" transform="scale(1,1) translate(2.5,2.5)"><text width="346.66666666666663" height="28.124998092651367" transform="scale(1,1) translate(0,15.187500953674316)" xml:space="preserve"><tspan xml:space="preserve" text-rendering="optimizeSpeed" font-size="25" font-weight="bold" font-style="normal" text-decoration="none" fill="#333333" opacity="1" x="74.45" text-anchor="start" y="22.917" textLength="197.76611328125" style="font-family: Verdana, Geneva, sans-serif;">write new review</tspan></text></g></g><g width="49.5" height="41.833" transform="rotate(90,501.417,1891.75) scale(1,1) translate(476.667,1870.833)"><g transform="scale(1,1) translate(0,0)" stroke="#A5A5A5" fill="#4BACC6" fill-opacity="1" stroke-opacity="1" filter="url(#14fe4887-d02c-4926-8092-757693e91f6e)"><path d="M24.75,0 L49.5,41.833 L0,41.833 L24.75,0 z" stroke-width="1" stroke-dasharray="none"/></g></g><g width="352.5" height="64.333" transform="scale(1,1) translate(175.833,1646.167)"><g stroke="#A5A5A5" stroke-opacity="1" stroke-width="1" stroke-dasharray="none" width="352.5" height="64.333" transform="scale(1,1) translate(0,0)" fill="#4BACC6" fill-opacity="1" filter="url(#586cfabb-9f26-484b-80c9-f4c95374a986)"><rect width="352.5" height="64.333"/></g><g width="347.5" height="59.33333333333333" transform="scale(1,1) translate(2.5,2.5)"><text width="347.5" height="28.124998092651367" transform="scale(1,1) translate(0,15.60416762034098)" xml:space="preserve"><tspan xml:space="preserve" text-rendering="optimizeSpeed" font-size="25" font-weight="bold" font-style="normal" text-decoration="none" fill="#333333" opacity="1" x="126.515" text-anchor="start" y="22.917" textLength="94.47021484375" style="font-family: Verdana, Geneva, sans-serif;">timeline</tspan></text></g></g><g width="351.667" height="63.5" transform="scale(1,1) translate(174.333,2025.833)"><g stroke="#A5A5A5" stroke-opacity="1" stroke-width="1" stroke-dasharray="none" width="351.667" height="63.5" transform="scale(1,1) translate(0,0)" fill="#F79646" fill-opacity="1" filter="url(#586cfabb-9f26-484b-80c9-f4c95374a986)"><rect width="351.667" height="63.5"/></g><g width="346.66666666666663" height="58.5" transform="scale(1,1) translate(2.5,2.5)"><text width="346.66666666666663" height="28.124998092651367" transform="scale(1,1) translate(0,15.187500953674316)" xml:space="preserve"><tspan xml:space="preserve" text-rendering="optimizeSpeed" font-size="25" font-weight="bold" font-style="normal" text-decoration="none" fill="#333333" opacity="1" x="91.333" text-anchor="start" y="22.917" textLength="164.00146484375" style="font-family: Verdana, Geneva, sans-serif;">my messages</tspan></text></g></g><g width="49.5" height="38.333" transform="rotate(90,502.917,2057.667) scale(1,1) translate(478.167,2038.5)"><g transform="scale(1,1) translate(0,0)" stroke="#A5A5A5" fill="#4BACC6" fill-opacity="1" stroke-opacity="1" filter="url(#640a5232-2426-4f4f-8db2-afdfdd05e52c)"><path d="M24.75,0 L49.5,38.333 L0,38.333 L24.75,0 z" stroke-width="1" stroke-dasharray="none"/></g></g><g width="544.333" height="71.333" transform="scale(1,1) translate(993.833,1636.5)"><g stroke="#A5A5A5" stroke-opacity="1" stroke-width="1" stroke-dasharray="none" width="544.333" height="71.333" transform="scale(1,1) translate(0,0)" fill="#93CDDC" fill-opacity="1" filter="url(#4694f83d-be9f-44f0-8306-b6722effc67d)"><rect width="544.333" height="71.333"/></g><g width="539.3333333333333" height="66.33333333333333" transform="scale(1,1) translate(2.5,2.5)"><text width="539.3333333333333" height="55.20833206176758" transform="scale(1,1) translate(0,5.562500635782875)" xml:space="preserve"><tspan xml:space="preserve" text-rendering="optimizeSpeed" font-size="50" font-weight="bold" font-style="normal" text-decoration="none" fill="#333333" opacity="1" x="189.051" text-anchor="start" y="44.792" textLength="161.23045349121094" style="font-family: Verdana, Geneva, sans-serif;">search</tspan></text></g></g><g width="137.167" height="137.333" transform="scale(1,1) translate(1922.667,1620)"><g width="137.167" height="137.333" transform="scale(1,1) translate(0,0)" stroke="#A5A5A5" stroke-width="1" stroke-dasharray="none" fill="#FF0000" fill-opacity="1" stroke-opacity="1" filter="url(#586cfabb-9f26-484b-80c9-f4c95374a986)"><ellipse rx="68.5835" ry="68.6665" cx="68.5835" cy="68.6665"/></g><g width="92.16666666666666" height="92.33333333333333" transform="scale(1,1) translate(22.5,22.5)"><text width="92.16666666666666" height="28.124998092651367" transform="scale(1,1) translate(0,32.10416762034098)" xml:space="preserve"><tspan xml:space="preserve" text-rendering="optimizeSpeed" font-size="25" font-weight="bold" font-style="normal" text-decoration="none" fill="#333333" opacity="1" x="7.906" text-anchor="start" y="22.917" textLength="76.35497283935547" style="font-family: Verdana, Geneva, sans-serif;">logout</tspan></text></g></g><g width="125.479" height="62.812" transform="scale(1,1) translate(761.844,1640.677)"><g transform="scale(1,1) translate(0,0)" stroke="#A5A5A5" fill="#FF0000" fill-opacity="1" stroke-opacity="1" filter="url(#586cfabb-9f26-484b-80c9-f4c95374a986)"><path d="M31,0 L24.025,0.795 L21.2,1.59 L19.077,2.385 L17.325,3.179 L15.814,3.974 L14.479,4.769 L13.28,5.564 L12.19,6.359 L11.192,7.154 L10.272,7.949 L9.421,8.744 L8.63,9.538 L7.894,10.333 L7.207,11.128 L6.565,11.923 L5.965,12.718 L5.403,13.513 L4.878,14.308 L4.387,15.103 L3.928,15.897 L3.499,16.692 L3.1,17.487 L2.729,18.282 L2.385,19.077 L2.066,19.872 L1.773,20.667 L1.504,21.462 L1.259,22.256 L1.036,23.051 L0.837,23.846 L0.659,24.641 L0.503,25.436 L0.369,26.231 L0.256,27.026 L0.163,27.821 L0.092,28.615 L0.041,29.41 L0.01,30.205 L0,31 L0,31.812 L0.01,32.607 L0.041,33.402 L0.092,34.197 L0.163,34.992 L0.256,35.787 L0.369,36.582 L0.503,37.377 L0.659,38.171 L0.837,38.966 L1.036,39.761 L1.259,40.556 L1.504,41.351 L1.773,42.146 L2.066,42.941 L2.385,43.736 L2.729,44.53 L3.1,45.325 L3.499,46.12 L3.928,46.915 L4.387,47.71 L4.878,48.505 L5.403,49.3 L5.965,50.095 L6.565,50.889 L7.207,51.684 L7.894,52.479 L8.63,53.274 L9.421,54.069 L10.272,54.864 L11.192,55.659 L12.19,56.454 L13.28,57.248 L14.479,58.043 L15.814,58.838 L17.325,59.633 L19.077,60.428 L21.2,61.223 L24.025,62.018 L31,62.812 L94.479,62.812 L101.454,62.018 L104.279,61.223 L106.402,60.428 L108.155,59.633 L109.665,58.838 L111,58.043 L112.2,57.248 L113.289,56.454 L114.287,55.659 L115.207,54.864 L116.058,54.069 L116.849,53.274 L117.585,52.479 L118.272,51.684 L118.914,50.889 L119.515,50.095 L120.076,49.3 L120.601,48.505 L121.093,47.71 L121.552,46.915 L121.98,46.12 L122.379,45.325 L122.75,44.53 L123.095,43.736 L123.413,42.941 L123.706,42.146 L123.975,41.351 L124.221,40.556 L124.443,39.761 L124.643,38.966 L124.82,38.171 L124.976,37.377 L125.11,36.582 L125.223,35.787 L125.316,34.992 L125.387,34.197 L125.438,33.402 L125.469,32.607 L125.479,31.812 L125.479,31 L125.469,30.205 L125.438,29.41 L125.387,28.615 L125.316,27.821 L125.223,27.026 L125.11,26.231 L124.976,25.436 L124.82,24.641 L124.643,23.846 L124.443,23.051 L124.221,22.256 L123.975,21.462 L123.706,20.667 L123.413,19.872 L123.095,19.077 L122.75,18.282 L122.379,17.487 L121.98,16.692 L121.552,15.897 L121.093,15.103 L120.601,14.308 L120.076,13.513 L119.515,12.718 L118.914,11.923 L118.272,11.128 L117.585,10.333 L116.849,9.538 L116.058,8.744 L115.207,7.949 L114.287,7.154 L113.289,6.359 L112.2,5.564 L111,4.769 L109.665,3.974 L108.155,3.179 L106.402,2.385 L104.279,1.59 L101.454,0.795 L94.479,0 L31,0 z" stroke-width="1" stroke-dasharray="none"/></g><g width="84.02012997969813" height="39.70803728802542" transform="scale(1,1) translate(20.73,11.552)"><text width="84.02012997969813" height="28.124998092651367" transform="scale(1,1) translate(0,5.791519597687028)" xml:space="preserve"><tspan xml:space="preserve" text-rendering="optimizeSpeed" font-size="25" font-weight="bold" font-style="normal" text-decoration="none" fill="#333333" opacity="1" x="0.335" text-anchor="start" y="22.917" textLength="83.349609375" style="font-family: Verdana, Geneva, sans-serif;">brands</tspan></text></g></g><g width="1446.5" height="70.5" transform="scale(1,1) translate(588.333,1918.667)"><g stroke="#A5A5A5" stroke-opacity="1" stroke-width="1" stroke-dasharray="none" width="1446.5" height="70.5" transform="scale(1,1) translate(0,0)" fill="#FF0000" fill-opacity="1" filter="url(#4694f83d-be9f-44f0-8306-b6722effc67d)"><rect width="1446.5" height="70.5"/></g></g><g width="105.618" height="52.737" transform="scale(1,1) translate(635.108,1927.548)"><g transform="scale(1,1) translate(0,0)" stroke="#A5A5A5" fill="#FADA7A" fill-opacity="1" stroke-opacity="1" filter="url(#586cfabb-9f26-484b-80c9-f4c95374a986)"><path d="M26,0 L20.15,0.667 L17.781,1.333 L16,2 L14.53,2.667 L13.263,3.333 L12.144,4 L11.138,4.667 L10.224,5.333 L9.387,6 L8.615,6.667 L7.902,7.333 L7.238,8 L6.621,8.667 L6.044,9.333 L5.506,10 L5.003,10.667 L4.532,11.333 L4.091,12 L3.679,12.667 L3.294,13.333 L2.935,14 L2.6,14.667 L2.289,15.333 L2,16 L1.733,16.667 L1.487,17.333 L1.261,18 L1.056,18.667 L0.869,19.333 L0.702,20 L0.553,20.667 L0.422,21.333 L0.31,22 L0.215,22.667 L0.137,23.333 L0.077,24 L0.034,24.667 L0.009,25.333 L0,26 L0,26.737 L0.009,27.404 L0.034,28.07 L0.077,28.737 L0.137,29.404 L0.215,30.07 L0.31,30.737 L0.422,31.404 L0.553,32.07 L0.702,32.737 L0.869,33.404 L1.056,34.07 L1.261,34.737 L1.487,35.404 L1.733,36.07 L2,36.737 L2.289,37.404 L2.6,38.07 L2.935,38.737 L3.294,39.404 L3.679,40.07 L4.091,40.737 L4.532,41.404 L5.003,42.07 L5.506,42.737 L6.044,43.404 L6.621,44.07 L7.238,44.737 L7.902,45.404 L8.615,46.07 L9.387,46.737 L10.224,47.404 L11.138,48.07 L12.144,48.737 L13.263,49.404 L14.53,50.07 L16,50.737 L17.781,51.404 L20.15,52.07 L26,52.737 L79.618,52.737 L85.468,52.07 L87.837,51.404 L89.618,50.737 L91.087,50.07 L92.354,49.404 L93.474,48.737 L94.48,48.07 L95.394,47.404 L96.231,46.737 L97.002,46.07 L97.716,45.404 L98.379,44.737 L98.997,44.07 L99.573,43.404 L100.112,42.737 L100.615,42.07 L101.086,41.404 L101.527,40.737 L101.939,40.07 L102.324,39.404 L102.683,38.737 L103.018,38.07 L103.329,37.404 L103.618,36.737 L103.885,36.07 L104.131,35.404 L104.356,34.737 L104.562,34.07 L104.748,33.404 L104.916,32.737 L105.065,32.07 L105.195,31.404 L105.308,30.737 L105.403,30.07 L105.481,29.404 L105.541,28.737 L105.583,28.07 L105.609,27.404 L105.618,26.737 L105.618,26 L105.609,25.333 L105.583,24.667 L105.541,24 L105.481,23.333 L105.403,22.667 L105.308,22 L105.195,21.333 L105.065,20.667 L104.916,20 L104.748,19.333 L104.562,18.667 L104.356,18 L104.131,17.333 L103.885,16.667 L103.618,16 L103.329,15.333 L103.018,14.667 L102.683,14 L102.324,13.333 L101.939,12.667 L101.527,12 L101.086,11.333 L100.615,10.667 L100.112,10 L99.573,9.333 L98.997,8.667 L98.379,8 L97.716,7.333 L97.002,6.667 L96.231,6 L95.394,5.333 L94.48,4.667 L93.474,4 L92.354,3.333 L91.087,2.667 L89.618,2 L87.837,1.333 L85.468,0.667 L79.618,0 L26,0 z" stroke-width="1" stroke-dasharray="none"/></g><g width="69.97585175564745" height="32.58356775312464" transform="scale(1,1) translate(17.821,10.077)"><text width="69.97585175564745" height="28.124998092651367" transform="scale(1,1) translate(0,2.2292848302366366)" xml:space="preserve"><tspan xml:space="preserve" text-rendering="optimizeSpeed" font-size="25" font-weight="bold" font-style="normal" text-decoration="none" fill="#333333" opacity="1" x="0.265" text-anchor="start" y="22.917" textLength="69.44580078125" style="font-family: Verdana, Geneva, sans-serif;">brand</tspan></text></g></g><g width="105.761" height="52.737" transform="scale(1,1) translate(1828.453,1927.548)"><g transform="scale(1,1) translate(0,0)" stroke="#A5A5A5" fill="#FADA7A" fill-opacity="1" stroke-opacity="1" filter="url(#586cfabb-9f26-484b-80c9-f4c95374a986)"><path d="M26,0 L20.15,0.667 L17.781,1.333 L16,2 L14.53,2.667 L13.263,3.333 L12.144,4 L11.138,4.667 L10.224,5.333 L9.387,6 L8.615,6.667 L7.902,7.333 L7.238,8 L6.621,8.667 L6.044,9.333 L5.506,10 L5.003,10.667 L4.532,11.333 L4.091,12 L3.679,12.667 L3.294,13.333 L2.935,14 L2.6,14.667 L2.289,15.333 L2,16 L1.733,16.667 L1.487,17.333 L1.261,18 L1.056,18.667 L0.869,19.333 L0.702,20 L0.553,20.667 L0.422,21.333 L0.31,22 L0.215,22.667 L0.137,23.333 L0.077,24 L0.034,24.667 L0.009,25.333 L0,26 L0,26.737 L0.009,27.404 L0.034,28.07 L0.077,28.737 L0.137,29.404 L0.215,30.07 L0.31,30.737 L0.422,31.404 L0.553,32.07 L0.702,32.737 L0.869,33.404 L1.056,34.07 L1.261,34.737 L1.487,35.404 L1.733,36.07 L2,36.737 L2.289,37.404 L2.6,38.07 L2.935,38.737 L3.294,39.404 L3.679,40.07 L4.091,40.737 L4.532,41.404 L5.003,42.07 L5.506,42.737 L6.044,43.404 L6.621,44.07 L7.238,44.737 L7.902,45.404 L8.615,46.07 L9.387,46.737 L10.224,47.404 L11.138,48.07 L12.144,48.737 L13.263,49.404 L14.53,50.07 L16,50.737 L17.781,51.404 L20.15,52.07 L26,52.737 L79.761,52.737 L85.611,52.07 L87.981,51.404 L89.761,50.737 L91.231,50.07 L92.498,49.404 L93.618,48.737 L94.624,48.07 L95.538,47.404 L96.375,46.737 L97.146,46.07 L97.86,45.404 L98.523,44.737 L99.141,44.07 L99.717,43.404 L100.255,42.737 L100.759,42.07 L101.23,41.404 L101.67,40.737 L102.082,40.07 L102.467,39.404 L102.826,38.737 L103.161,38.07 L103.473,37.404 L103.761,36.737 L104.028,36.07 L104.274,35.404 L104.5,34.737 L104.706,34.07 L104.892,33.404 L105.06,32.737 L105.208,32.07 L105.339,31.404 L105.452,30.737 L105.547,30.07 L105.624,29.404 L105.684,28.737 L105.727,28.07 L105.753,27.404 L105.761,26.737 L105.761,26 L105.753,25.333 L105.727,24.667 L105.684,24 L105.624,23.333 L105.547,22.667 L105.452,22 L105.339,21.333 L105.208,20.667 L105.06,20 L104.892,19.333 L104.706,18.667 L104.5,18 L104.274,17.333 L104.028,16.667 L103.761,16 L103.473,15.333 L103.161,14.667 L102.826,14 L102.467,13.333 L102.082,12.667 L101.67,12 L101.23,11.333 L100.759,10.667 L100.255,10 L99.717,9.333 L99.141,8.667 L98.523,8 L97.86,7.333 L97.146,6.667 L96.375,6 L95.538,5.333 L94.624,4.667 L93.618,4 L92.498,3.333 L91.231,2.667 L89.761,2 L87.981,1.333 L85.611,0.667 L79.761,0 L26,0 z" stroke-width="1" stroke-dasharray="none"/></g><g width="70.0774612230456" height="32.58356775312464" transform="scale(1,1) translate(17.842,10.077)"><text width="70.0774612230456" height="28.124998092651367" transform="scale(1,1) translate(0,2.2292848302366366)" xml:space="preserve"><tspan xml:space="preserve" text-rendering="optimizeSpeed" font-size="25" font-weight="bold" font-style="normal" text-decoration="none" fill="#333333" opacity="1" x="0.316" text-anchor="start" y="22.917" textLength="69.44580078125" style="font-family: Verdana, Geneva, sans-serif;">brand</tspan></text></g></g><g width="106.028" height="52.799" transform="scale(1,1) translate(1598.403,1927.517)"><g transform="scale(1,1) translate(0,0)" stroke="#A5A5A5" fill="#FADA7A" fill-opacity="1" stroke-opacity="1" filter="url(#586cfabb-9f26-484b-80c9-f4c95374a986)"><path d="M26,0 L20.15,0.667 L17.781,1.333 L16,2 L14.53,2.667 L13.263,3.333 L12.144,4 L11.138,4.667 L10.224,5.333 L9.387,6 L8.615,6.667 L7.902,7.333 L7.238,8 L6.621,8.667 L6.044,9.333 L5.506,10 L5.003,10.667 L4.532,11.333 L4.091,12 L3.679,12.667 L3.294,13.333 L2.935,14 L2.6,14.667 L2.289,15.333 L2,16 L1.733,16.667 L1.487,17.333 L1.261,18 L1.056,18.667 L0.869,19.333 L0.702,20 L0.553,20.667 L0.422,21.333 L0.31,22 L0.215,22.667 L0.137,23.333 L0.077,24 L0.034,24.667 L0.009,25.333 L0,26 L0,26.799 L0.009,27.466 L0.034,28.133 L0.077,28.799 L0.137,29.466 L0.215,30.133 L0.31,30.799 L0.422,31.466 L0.553,32.133 L0.702,32.799 L0.869,33.466 L1.056,34.133 L1.261,34.799 L1.487,35.466 L1.733,36.133 L2,36.799 L2.289,37.466 L2.6,38.133 L2.935,38.799 L3.294,39.466 L3.679,40.133 L4.091,40.799 L4.532,41.466 L5.003,42.133 L5.506,42.799 L6.044,43.466 L6.621,44.133 L7.238,44.799 L7.902,45.466 L8.615,46.133 L9.387,46.799 L10.224,47.466 L11.138,48.133 L12.144,48.799 L13.263,49.466 L14.53,50.133 L16,50.799 L17.781,51.466 L20.15,52.133 L26,52.799 L80.028,52.799 L85.878,52.133 L88.247,51.466 L90.028,50.799 L91.498,50.133 L92.765,49.466 L93.885,48.799 L94.891,48.133 L95.804,47.466 L96.641,46.799 L97.413,46.133 L98.127,45.466 L98.79,44.799 L99.407,44.133 L99.984,43.466 L100.522,42.799 L101.026,42.133 L101.497,41.466 L101.937,40.799 L102.349,40.133 L102.734,39.466 L103.093,38.799 L103.428,38.133 L103.739,37.466 L104.028,36.799 L104.295,36.133 L104.541,35.466 L104.767,34.799 L104.973,34.133 L105.159,33.466 L105.326,32.799 L105.475,32.133 L105.606,31.466 L105.719,30.799 L105.814,30.133 L105.891,29.466 L105.951,28.799 L105.994,28.133 L106.02,27.466 L106.028,26.799 L106.028,26 L106.02,25.333 L105.994,24.667 L105.951,24 L105.891,23.333 L105.814,22.667 L105.719,22 L105.606,21.333 L105.475,20.667 L105.326,20 L105.159,19.333 L104.973,18.667 L104.767,18 L104.541,17.333 L104.295,16.667 L104.028,16 L103.739,15.333 L103.428,14.667 L103.093,14 L102.734,13.333 L102.349,12.667 L101.937,12 L101.497,11.333 L101.026,10.667 L100.522,10 L99.984,9.333 L99.407,8.667 L98.79,8 L98.127,7.333 L97.413,6.667 L96.641,6 L95.804,5.333 L94.891,4.667 L93.885,4 L92.765,3.333 L91.498,2.667 L90.028,2 L88.247,1.333 L85.878,0.667 L80.028,0 L26,0 z" stroke-width="1" stroke-dasharray="none"/></g><g width="70.26616615395865" height="32.627761926999646" transform="scale(1,1) translate(17.881,10.086)"><text width="70.26616615395865" height="28.124998092651367" transform="scale(1,1) translate(0,2.2513819171741396)" xml:space="preserve"><tspan xml:space="preserve" text-rendering="optimizeSpeed" font-size="25" font-weight="bold" font-style="normal" text-decoration="none" fill="#333333" opacity="1" x="0.41" text-anchor="start" y="22.917" textLength="69.44580078125" style="font-family: Verdana, Geneva, sans-serif;">brand</tspan></text></g></g><g width="105.761" height="52.737" transform="scale(1,1) translate(1316.619,1927.548)"><g transform="scale(1,1) translate(0,0)" stroke="#A5A5A5" fill="#FADA7A" fill-opacity="1" stroke-opacity="1" filter="url(#586cfabb-9f26-484b-80c9-f4c95374a986)"><path d="M26,0 L20.15,0.667 L17.781,1.333 L16,2 L14.53,2.667 L13.263,3.333 L12.144,4 L11.138,4.667 L10.224,5.333 L9.387,6 L8.615,6.667 L7.902,7.333 L7.238,8 L6.621,8.667 L6.044,9.333 L5.506,10 L5.003,10.667 L4.532,11.333 L4.091,12 L3.679,12.667 L3.294,13.333 L2.935,14 L2.6,14.667 L2.289,15.333 L2,16 L1.733,16.667 L1.487,17.333 L1.261,18 L1.056,18.667 L0.869,19.333 L0.702,20 L0.553,20.667 L0.422,21.333 L0.31,22 L0.215,22.667 L0.137,23.333 L0.077,24 L0.034,24.667 L0.009,25.333 L0,26 L0,26.737 L0.009,27.404 L0.034,28.07 L0.077,28.737 L0.137,29.404 L0.215,30.07 L0.31,30.737 L0.422,31.404 L0.553,32.07 L0.702,32.737 L0.869,33.404 L1.056,34.07 L1.261,34.737 L1.487,35.404 L1.733,36.07 L2,36.737 L2.289,37.404 L2.6,38.07 L2.935,38.737 L3.294,39.404 L3.679,40.07 L4.091,40.737 L4.532,41.404 L5.003,42.07 L5.506,42.737 L6.044,43.404 L6.621,44.07 L7.238,44.737 L7.902,45.404 L8.615,46.07 L9.387,46.737 L10.224,47.404 L11.138,48.07 L12.144,48.737 L13.263,49.404 L14.53,50.07 L16,50.737 L17.781,51.404 L20.15,52.07 L26,52.737 L79.761,52.737 L85.611,52.07 L87.981,51.404 L89.761,50.737 L91.231,50.07 L92.498,49.404 L93.618,48.737 L94.624,48.07 L95.538,47.404 L96.375,46.737 L97.146,46.07 L97.86,45.404 L98.523,44.737 L99.141,44.07 L99.717,43.404 L100.255,42.737 L100.759,42.07 L101.23,41.404 L101.67,40.737 L102.082,40.07 L102.467,39.404 L102.826,38.737 L103.161,38.07 L103.473,37.404 L103.761,36.737 L104.028,36.07 L104.274,35.404 L104.5,34.737 L104.706,34.07 L104.892,33.404 L105.06,32.737 L105.208,32.07 L105.339,31.404 L105.452,30.737 L105.547,30.07 L105.624,29.404 L105.684,28.737 L105.727,28.07 L105.753,27.404 L105.761,26.737 L105.761,26 L105.753,25.333 L105.727,24.667 L105.684,24 L105.624,23.333 L105.547,22.667 L105.452,22 L105.339,21.333 L105.208,20.667 L105.06,20 L104.892,19.333 L104.706,18.667 L104.5,18 L104.274,17.333 L104.028,16.667 L103.761,16 L103.473,15.333 L103.161,14.667 L102.826,14 L102.467,13.333 L102.082,12.667 L101.67,12 L101.23,11.333 L100.759,10.667 L100.255,10 L99.717,9.333 L99.141,8.667 L98.523,8 L97.86,7.333 L97.146,6.667 L96.375,6 L95.538,5.333 L94.624,4.667 L93.618,4 L92.498,3.333 L91.231,2.667 L89.761,2 L87.981,1.333 L85.611,0.667 L79.761,0 L26,0 z" stroke-width="1" stroke-dasharray="none"/></g><g width="70.0774612230456" height="32.58356775312464" transform="scale(1,1) translate(17.842,10.077)"><text width="70.0774612230456" height="28.124998092651367" transform="scale(1,1) translate(0,2.2292848302366366)" xml:space="preserve"><tspan xml:space="preserve" text-rendering="optimizeSpeed" font-size="25" font-weight="bold" font-style="normal" text-decoration="none" fill="#333333" opacity="1" x="0.316" text-anchor="start" y="22.917" textLength="69.44580078125" style="font-family: Verdana, Geneva, sans-serif;">brand</tspan></text></g></g><g width="105.761" height="52.737" transform="scale(1,1) translate(1080.453,1927.548)"><g transform="scale(1,1) translate(0,0)" stroke="#A5A5A5" fill="#FADA7A" fill-opacity="1" stroke-opacity="1" filter="url(#586cfabb-9f26-484b-80c9-f4c95374a986)"><path d="M26,0 L20.15,0.667 L17.781,1.333 L16,2 L14.53,2.667 L13.263,3.333 L12.144,4 L11.138,4.667 L10.224,5.333 L9.387,6 L8.615,6.667 L7.902,7.333 L7.238,8 L6.621,8.667 L6.044,9.333 L5.506,10 L5.003,10.667 L4.532,11.333 L4.091,12 L3.679,12.667 L3.294,13.333 L2.935,14 L2.6,14.667 L2.289,15.333 L2,16 L1.733,16.667 L1.487,17.333 L1.261,18 L1.056,18.667 L0.869,19.333 L0.702,20 L0.553,20.667 L0.422,21.333 L0.31,22 L0.215,22.667 L0.137,23.333 L0.077,24 L0.034,24.667 L0.009,25.333 L0,26 L0,26.737 L0.009,27.404 L0.034,28.07 L0.077,28.737 L0.137,29.404 L0.215,30.07 L0.31,30.737 L0.422,31.404 L0.553,32.07 L0.702,32.737 L0.869,33.404 L1.056,34.07 L1.261,34.737 L1.487,35.404 L1.733,36.07 L2,36.737 L2.289,37.404 L2.6,38.07 L2.935,38.737 L3.294,39.404 L3.679,40.07 L4.091,40.737 L4.532,41.404 L5.003,42.07 L5.506,42.737 L6.044,43.404 L6.621,44.07 L7.238,44.737 L7.902,45.404 L8.615,46.07 L9.387,46.737 L10.224,47.404 L11.138,48.07 L12.144,48.737 L13.263,49.404 L14.53,50.07 L16,50.737 L17.781,51.404 L20.15,52.07 L26,52.737 L79.761,52.737 L85.611,52.07 L87.981,51.404 L89.761,50.737 L91.231,50.07 L92.498,49.404 L93.618,48.737 L94.624,48.07 L95.538,47.404 L96.375,46.737 L97.146,46.07 L97.86,45.404 L98.523,44.737 L99.141,44.07 L99.717,43.404 L100.255,42.737 L100.759,42.07 L101.23,41.404 L101.67,40.737 L102.082,40.07 L102.467,39.404 L102.826,38.737 L103.161,38.07 L103.473,37.404 L103.761,36.737 L104.028,36.07 L104.274,35.404 L104.5,34.737 L104.706,34.07 L104.892,33.404 L105.06,32.737 L105.208,32.07 L105.339,31.404 L105.452,30.737 L105.547,30.07 L105.624,29.404 L105.684,28.737 L105.727,28.07 L105.753,27.404 L105.761,26.737 L105.761,26 L105.753,25.333 L105.727,24.667 L105.684,24 L105.624,23.333 L105.547,22.667 L105.452,22 L105.339,21.333 L105.208,20.667 L105.06,20 L104.892,19.333 L104.706,18.667 L104.5,18 L104.274,17.333 L104.028,16.667 L103.761,16 L103.473,15.333 L103.161,14.667 L102.826,14 L102.467,13.333 L102.082,12.667 L101.67,12 L101.23,11.333 L100.759,10.667 L100.255,10 L99.717,9.333 L99.141,8.667 L98.523,8 L97.86,7.333 L97.146,6.667 L96.375,6 L95.538,5.333 L94.624,4.667 L93.618,4 L92.498,3.333 L91.231,2.667 L89.761,2 L87.981,1.333 L85.611,0.667 L79.761,0 L26,0 z" stroke-width="1" stroke-dasharray="none"/></g><g width="70.0774612230456" height="32.58356775312464" transform="scale(1,1) translate(17.842,10.077)"><text width="70.0774612230456" height="28.124998092651367" transform="scale(1,1) translate(0,2.2292848302366366)" xml:space="preserve"><tspan xml:space="preserve" text-rendering="optimizeSpeed" font-size="25" font-weight="bold" font-style="normal" text-decoration="none" fill="#333333" opacity="1" x="0.316" text-anchor="start" y="22.917" textLength="69.44580078125" style="font-family: Verdana, Geneva, sans-serif;">brand</tspan></text></g></g><g width="106.028" height="52.799" transform="scale(1,1) translate(871.069,1927.517)"><g transform="scale(1,1) translate(0,0)" stroke="#A5A5A5" fill="#FADA7A" fill-opacity="1" stroke-opacity="1" filter="url(#586cfabb-9f26-484b-80c9-f4c95374a986)"><path d="M26,0 L20.15,0.667 L17.781,1.333 L16,2 L14.53,2.667 L13.263,3.333 L12.144,4 L11.138,4.667 L10.224,5.333 L9.387,6 L8.615,6.667 L7.902,7.333 L7.238,8 L6.621,8.667 L6.044,9.333 L5.506,10 L5.003,10.667 L4.532,11.333 L4.091,12 L3.679,12.667 L3.294,13.333 L2.935,14 L2.6,14.667 L2.289,15.333 L2,16 L1.733,16.667 L1.487,17.333 L1.261,18 L1.056,18.667 L0.869,19.333 L0.702,20 L0.553,20.667 L0.422,21.333 L0.31,22 L0.215,22.667 L0.137,23.333 L0.077,24 L0.034,24.667 L0.009,25.333 L0,26 L0,26.799 L0.009,27.466 L0.034,28.133 L0.077,28.799 L0.137,29.466 L0.215,30.133 L0.31,30.799 L0.422,31.466 L0.553,32.133 L0.702,32.799 L0.869,33.466 L1.056,34.133 L1.261,34.799 L1.487,35.466 L1.733,36.133 L2,36.799 L2.289,37.466 L2.6,38.133 L2.935,38.799 L3.294,39.466 L3.679,40.133 L4.091,40.799 L4.532,41.466 L5.003,42.133 L5.506,42.799 L6.044,43.466 L6.621,44.133 L7.238,44.799 L7.902,45.466 L8.615,46.133 L9.387,46.799 L10.224,47.466 L11.138,48.133 L12.144,48.799 L13.263,49.466 L14.53,50.133 L16,50.799 L17.781,51.466 L20.15,52.133 L26,52.799 L80.028,52.799 L85.878,52.133 L88.247,51.466 L90.028,50.799 L91.498,50.133 L92.765,49.466 L93.885,48.799 L94.891,48.133 L95.804,47.466 L96.641,46.799 L97.413,46.133 L98.127,45.466 L98.79,44.799 L99.407,44.133 L99.984,43.466 L100.522,42.799 L101.026,42.133 L101.497,41.466 L101.937,40.799 L102.349,40.133 L102.734,39.466 L103.093,38.799 L103.428,38.133 L103.739,37.466 L104.028,36.799 L104.295,36.133 L104.541,35.466 L104.767,34.799 L104.973,34.133 L105.159,33.466 L105.326,32.799 L105.475,32.133 L105.606,31.466 L105.719,30.799 L105.814,30.133 L105.891,29.466 L105.951,28.799 L105.994,28.133 L106.02,27.466 L106.028,26.799 L106.028,26 L106.02,25.333 L105.994,24.667 L105.951,24 L105.891,23.333 L105.814,22.667 L105.719,22 L105.606,21.333 L105.475,20.667 L105.326,20 L105.159,19.333 L104.973,18.667 L104.767,18 L104.541,17.333 L104.295,16.667 L104.028,16 L103.739,15.333 L103.428,14.667 L103.093,14 L102.734,13.333 L102.349,12.667 L101.937,12 L101.497,11.333 L101.026,10.667 L100.522,10 L99.984,9.333 L99.407,8.667 L98.79,8 L98.127,7.333 L97.413,6.667 L96.641,6 L95.804,5.333 L94.891,4.667 L93.885,4 L92.765,3.333 L91.498,2.667 L90.028,2 L88.247,1.333 L85.878,0.667 L80.028,0 L26,0 z" stroke-width="1" stroke-dasharray="none"/></g><g width="70.26616615395865" height="32.627761926999646" transform="scale(1,1) translate(17.881,10.086)"><text width="70.26616615395865" height="28.124998092651367" transform="scale(1,1) translate(0,2.2513819171741396)" xml:space="preserve"><tspan xml:space="preserve" text-rendering="optimizeSpeed" font-size="25" font-weight="bold" font-style="normal" text-decoration="none" fill="#333333" opacity="1" x="0.41" text-anchor="start" y="22.917" textLength="69.44580078125" style="font-family: Verdana, Geneva, sans-serif;">brand</tspan></text></g></g><g width="100" height="50" transform="rotate(90,1974.667,2223.333) scale(1,1) translate(1924.667,2198.333)"><g transform="scale(1,1) translate(0,0)" stroke="#A5A5A5" fill="#FADA7A" fill-opacity="1" stroke-opacity="1" filter="url(#586cfabb-9f26-484b-80c9-f4c95374a986)"><path d="M50,0 L100,50 L0,50 L50,0 z" stroke-width="1" stroke-dasharray="none"/></g></g><g width="100" height="50" transform="rotate(270,642.333,2217.167) scale(1,1) translate(592.333,2192.167)"><g transform="scale(1,1) translate(0,0)" stroke="#A5A5A5" fill="#FADA7A" fill-opacity="1" stroke-opacity="1" filter="url(#586cfabb-9f26-484b-80c9-f4c95374a986)"><path d="M50,0 L100,50 L0,50 L50,0 z" stroke-width="1" stroke-dasharray="none"/></g></g><g width="229.167" height="212.333" transform="scale(1,1) translate(803.333,2084)"><g transform="scale(1,1) translate(0,0)" stroke="#A5A5A5" fill="#FADA7A" fill-opacity="1" stroke-opacity="1" filter="url(#586cfabb-9f26-484b-80c9-f4c95374a986)"><path d="M0,42.467 a42.467,42.467 0 0,1 42.467,-42.467 l144.233,0 a42.467,42.467 0 0,1 42.467,42.467 l0,127.4 a42.467,42.467 0 0,1 -42.467,42.467 l-144.233,0 a42.467,42.467 0 0,1 -42.467,-42.467 z" stroke-width="1" stroke-dasharray="none"/></g><g width="199.5" height="182.66666666666666" transform="scale(1,1) translate(14.833,14.833)"><text width="199.5" height="28.124998092651367" transform="scale(1,1) translate(0,77.27083428700765)" xml:space="preserve"><tspan xml:space="preserve" text-rendering="optimizeSpeed" font-size="25" font-weight="bold" font-style="normal" text-decoration="none" fill="#333333" opacity="1" x="57.135" text-anchor="start" y="22.917" textLength="85.2294921875" style="font-family: Verdana, Geneva, sans-serif;">Review</tspan></text></g></g><g width="229" height="212.5" transform="scale(1,1) translate(1164,2077.667)"><g transform="scale(1,1) translate(0,0)" stroke="#A5A5A5" fill="#FADA7A" fill-opacity="1" stroke-opacity="1" filter="url(#586cfabb-9f26-484b-80c9-f4c95374a986)"><path d="M0,42.5 a42.5,42.5 0 0,1 42.5,-42.5 l144,0 a42.5,42.5 0 0,1 42.5,42.5 l0,127.5 a42.5,42.5 0 0,1 -42.5,42.5 l-144,0 a42.5,42.5 0 0,1 -42.5,-42.5 z" stroke-width="1" stroke-dasharray="none"/></g><g width="199.16666666666666" height="182.66666666666666" transform="scale(1,1) translate(14.833,15)"><text width="199.16666666666666" height="28.124998092651367" transform="scale(1,1) translate(0,77.27083428700765)" xml:space="preserve"><tspan xml:space="preserve" text-rendering="optimizeSpeed" font-size="25" font-weight="bold" font-style="normal" text-decoration="none" fill="#333333" opacity="1" x="56.969" text-anchor="start" y="22.917" textLength="85.2294921875" style="font-family: Verdana, Geneva, sans-serif;">Review</tspan></text></g></g><g width="229" height="212.5" transform="scale(1,1) translate(1570,2071.5)"><g transform="scale(1,1) translate(0,0)" stroke="#A5A5A5" fill="#FADA7A" fill-opacity="1" stroke-opacity="1" filter="url(#586cfabb-9f26-484b-80c9-f4c95374a986)"><path d="M0,42.5 a42.5,42.5 0 0,1 42.5,-42.5 l144,0 a42.5,42.5 0 0,1 42.5,42.5 l0,127.5 a42.5,42.5 0 0,1 -42.5,42.5 l-144,0 a42.5,42.5 0 0,1 -42.5,-42.5 z" stroke-width="1" stroke-dasharray="none"/></g><g width="199.16666666666666" height="182.83333333333331" transform="scale(1,1) translate(15,14.833)"><text width="199.16666666666666" height="28.124998092651367" transform="scale(1,1) translate(0,77.35416762034097)" xml:space="preserve"><tspan xml:space="preserve" text-rendering="optimizeSpeed" font-size="25" font-weight="bold" font-style="normal" text-decoration="none" fill="#333333" opacity="1" x="56.969" text-anchor="start" y="22.917" textLength="85.2294921875" style="font-family: Verdana, Geneva, sans-serif;">Review</tspan></text></g></g><g width="229.167" height="212.333" transform="scale(1,1) translate(790.833,2372)"><g transform="scale(1,1) translate(0,0)" stroke="#A5A5A5" fill="#FADA7A" fill-opacity="1" stroke-opacity="1" filter="url(#586cfabb-9f26-484b-80c9-f4c95374a986)"><path d="M0,42.467 a42.467,42.467 0 0,1 42.467,-42.467 l144.233,0 a42.467,42.467 0 0,1 42.467,42.467 l0,127.4 a42.467,42.467 0 0,1 -42.467,42.467 l-144.233,0 a42.467,42.467 0 0,1 -42.467,-42.467 z" stroke-width="1" stroke-dasharray="none"/></g><g width="199.33333333333331" height="182.66666666666666" transform="scale(1,1) translate(15,14.833)"><text width="199.33333333333331" height="28.124998092651367" transform="scale(1,1) translate(0,77.27083428700765)" xml:space="preserve"><tspan xml:space="preserve" text-rendering="optimizeSpeed" font-size="25" font-weight="bold" font-style="normal" text-decoration="none" fill="#333333" opacity="1" x="57.052" text-anchor="start" y="22.917" textLength="85.2294921875" style="font-family: Verdana, Geneva, sans-serif;">Review</tspan></text></g></g><g width="229" height="212.5" transform="scale(1,1) translate(1170.167,2371.833)"><g transform="scale(1,1) translate(0,0)" stroke="#A5A5A5" fill="#FADA7A" fill-opacity="1" stroke-opacity="1" filter="url(#586cfabb-9f26-484b-80c9-f4c95374a986)"><path d="M0,42.5 a42.5,42.5 0 0,1 42.5,-42.5 l144,0 a42.5,42.5 0 0,1 42.5,42.5 l0,127.5 a42.5,42.5 0 0,1 -42.5,42.5 l-144,0 a42.5,42.5 0 0,1 -42.5,-42.5 z" stroke-width="1" stroke-dasharray="none"/></g><g width="199.33333333333331" height="182.66666666666666" transform="scale(1,1) translate(14.833,15)"><text width="199.33333333333331" height="28.124998092651367" transform="scale(1,1) translate(0,77.27083428700765)" xml:space="preserve"><tspan xml:space="preserve" text-rendering="optimizeSpeed" font-size="25" font-weight="bold" font-style="normal" text-decoration="none" fill="#333333" opacity="1" x="57.052" text-anchor="start" y="22.917" textLength="85.2294921875" style="font-family: Verdana, Geneva, sans-serif;">Review</tspan></text></g></g><g width="229" height="212.5" transform="scale(1,1) translate(1576.167,2365.667)"><g transform="scale(1,1) translate(0,0)" stroke="#A5A5A5" fill="#FADA7A" fill-opacity="1" stroke-opacity="1" filter="url(#586cfabb-9f26-484b-80c9-f4c95374a986)"><path d="M0,42.5 a42.5,42.5 0 0,1 42.5,-42.5 l144,0 a42.5,42.5 0 0,1 42.5,42.5 l0,127.5 a42.5,42.5 0 0,1 -42.5,42.5 l-144,0 a42.5,42.5 0 0,1 -42.5,-42.5 z" stroke-width="1" stroke-dasharray="none"/></g><g width="199.16666666666666" height="182.66666666666666" transform="scale(1,1) translate(15,15)"><text width="199.16666666666666" height="28.124998092651367" transform="scale(1,1) translate(0,77.27083428700765)" xml:space="preserve"><tspan xml:space="preserve" text-rendering="optimizeSpeed" font-size="25" font-weight="bold" font-style="normal" text-decoration="none" fill="#333333" opacity="1" x="56.969" text-anchor="start" y="22.917" textLength="85.2294921875" style="font-family: Verdana, Geneva, sans-serif;">Review</tspan></text></g></g></g></svg>